<svg xmlns="http://www.w3.org/2000/svg" fill="currentColor" aria-label="checklist paper" viewBox="0 0 148 190"><path d="M14.3 10.1c-6.9 2-6.6-2.6-6.4 84.1.2 84.1.1 82 5.4 85 1.7 1 15 1.3 60.7 1.3 66.2-.1 63.9.2 66-7.4q1-3.9.8-69l-.3-65.1-14.8-14.7L111 9.5l-46.8-.2a641 641 0 0 0-49.9.8M107 25.7c0 6.5.4 12.3.8 12.9 1.7 2.6 5.6 3.4 16 3.4 9.1 0 11.1.3 11.6 1.6.3.9.6 29.8.6 64.4 0 58.3-.1 62.9-1.7 64.9-1.8 2.1-2.3 2.1-54.8 2.8-55.7.6-63.9.3-65.4-2.6-.6-1-1.1-34-1.2-79-.2-74.4-.2-77.4 1.6-78.7C16 14.3 25.1 14 61.7 14H107zm15.4 11.1c-5.4.2-9.1-.1-9.8-.8-.6-.6-1.2-5.2-1.4-10.3l-.4-9.2 10.1 10 10.1 10z"/><path d="M26.2 44.2A60 60 0 0 0 26 67c.7 1.2 3.1 1.5 10.7 1.5 5.4 0 10.6-.3 11.6-.7 1.5-.6 1.7-2.2 1.7-11.6q0-10.7-1.2-12Q47.4 43 37.5 43t-11.3 1.2M45 56v8H30V48h15zm18.6-1.1c-.3.5-.3 1.6 0 2.5.6 1.5 3.4 1.6 25.8 1.4 24.3-.3 25.1-.4 25.1-2.3s-.8-2-25.2-2.3c-14.7-.1-25.4.2-25.7.7M26.2 86.2c-1.6 1.6-1.6 21 0 22.6s21 1.6 22.6 0 1.6-21 0-22.6-21-1.6-22.6 0M45 97v8H30V89h15zm19-.5c-2.6 3.1-.1 3.5 25.1 3.5 22 0 25-.2 25.6-1.6q.4-1.5-.8-2.5c-.8-.5-12-.9-25-.9-19.5 0-23.9.3-24.9 1.5m-36 30.2c-2.6 1-3 2.6-3 12.5 0 12.5.2 12.8 12.1 12.8 13.1 0 12.9.2 12.9-13 0-9.8-.2-11-1.9-12-2-1-17.5-1.3-20.1-.3m17.2 11.9c.2 4.2.1 7.8-.1 8s-3.7.4-7.8.4H30v-16h14.8zm18.3-.6c-.4.6-.1 1.7.5 2.5 1 1.2 5.4 1.5 24.9 1.5 13 0 24.2-.4 25-.9q1.2-1 .8-2.5c-.6-1.4-3.6-1.6-25.6-1.6a141 141 0 0 0-25.6 1"/></svg>